<?xml version="1.0" standalone="no"?>
<!DOCTYPE svg PUBLIC "-//W3C//DTD SVG 20010904//EN"
 "http://www.w3.org/TR/2001/REC-SVG-20010904/DTD/svg10.dtd">
<svg version="1.0" xmlns="http://www.w3.org/2000/svg"
 width="546.000000pt" height="601.000000pt" viewBox="0 0 546.000000 601.000000"
 preserveAspectRatio="xMidYMid meet">

<g transform="translate(0.000000,601.000000) scale(0.100000,-0.100000)"
fill="#000000" stroke="none">
<path d="M3345 4975 c-25 -24 -25 -27 -25 -190 l0 -165 -51 0 c-65 0 -109 -38
-109 -95 0 -57 44 -95 109 -95 l51 0 0 -71 c0 -65 2 -73 29 -100 l29 -29 187
0 c188 0 216 4 242 39 19 25 16 95 -6 122 -18 23 -27 24 -153 29 l-133 5 -5
268 c-5 268 -5 269 -29 288 -35 29 -105 26 -136 -6z"/>
<path d="M2025 4373 c-30 -29 -35 -62 -35 -214 l0 -149 -50 0 c-66 0 -100 -30
-100 -89 0 -22 3 -47 6 -56 9 -24 58 -45 104 -45 l40 0 0 -60 c0 -70 17 -111
55 -128 40 -18 368 -16 404 3 55 28 64 104 19 153 -20 21 -30 22 -149 22
l-128 0 -3 264 c-3 264 -3 264 -27 290 -20 21 -34 26 -72 26 -31 0 -53 -6 -64
-17z"/>
<path d="M3165 4361 c-51 -21 -60 -46 -64 -177 l-3 -123 -258 -3 c-258 -3
-258 -3 -284 -27 -21 -20 -26 -34 -26 -72 0 -86 30 -99 231 -99 l149 0 0 -53
c0 -43 5 -58 23 -74 29 -27 60 -33 102 -22 42 12 65 50 65 109 l0 40 60 0
c129 0 140 21 140 255 0 197 -7 225 -61 244 -37 13 -46 13 -74 2z"/>
<path d="M3950 4363 c-42 -15 -60 -46 -60 -100 l0 -53 -69 0 c-60 0 -74 -3
-100 -26 l-31 -26 0 -198 c0 -181 2 -199 20 -222 23 -30 60 -39 106 -26 53 14
64 47 64 188 l0 120 265 0 266 0 24 25 c34 33 34 93 1 132 l-24 28 -166 3
-166 4 0 39 c0 54 -23 95 -61 108 -34 12 -46 12 -69 4z"/>
<path d="M3189 3811 c-38 -39 -39 -87 -3 -130 l26 -31 129 0 129 0 0 -261 0
-261 29 -29 c36 -35 95 -40 132 -10 23 18 24 26 29 188 l5 168 52 3 c69 4 103
36 103 97 0 64 -25 88 -96 95 l-59 5 -1 55 c0 83 -2 89 -30 115 -27 25 -29 25
-221 25 l-195 0 -29 -29z"/>
<path d="M1834 3751 c-46 -20 -54 -47 -54 -178 l0 -122 -266 -3 -266 -3 -24
-28 c-26 -30 -32 -83 -14 -118 22 -40 61 -49 220 -49 l150 0 0 -40 c0 -46 21
-95 45 -104 9 -3 34 -6 56 -6 59 0 89 34 89 100 l0 50 60 0 c66 0 113 18 130
49 6 12 10 99 10 210 0 183 -1 191 -22 216 -25 28 -79 40 -114 26z"/>
<path d="M2614 3751 c-35 -15 -54 -51 -54 -103 l0 -48 -69 0 c-59 0 -74 -4
-98 -24 l-28 -24 -3 -183 c-4 -199 -1 -220 28 -249 27 -27 99 -27 131 -1 23
18 24 27 29 153 l5 133 265 3 c255 2 265 3 287 24 17 16 23 33 23 64 0 95 -20
104 -225 104 l-155 0 0 49 c0 37 -6 56 -22 76 -25 28 -79 40 -114 26z"/>
<path d="M1865 3205 c-32 -31 -35 -101 -6 -136 18 -23 27 -24 153 -29 l133 -5
5 -268 c5 -268 5 -269 29 -288 37 -30 96 -25 132 10 l29 29 0 161 0 161 49 0
c71 0 106 31 106 95 0 64 -35 95 -106 95 l-49 0 0 71 c0 65 -2 73 -29 100
l-29 29 -197 0 c-195 0 -196 0 -220 -25z"/>
<path d="M1829 2911 l-29 -29 0 -161 0 -161 -37 0 c-84 0 -132 -52 -119 -126
9 -43 42 -66 107 -72 l49 -5 0 -69 c0 -60 3 -72 25 -93 24 -25 25 -25 225 -25
200 0 201 0 225 25 34 33 34 93 1 132 -24 28 -26 28 -155 31 l-131 4 0 260 0
260 -29 29 c-22 21 -39 29 -66 29 -27 0 -44 -8 -66 -29z"/>
<path d="M1627 2289 c-34 -20 -47 -72 -47 -189 l0 -110 -259 0 -260 0 -28 -24
c-24 -20 -28 -32 -27 -71 1 -33 7 -52 23 -68 20 -20 34 -22 189 -27 l167 -5 5
-59 c6 -70 31 -96 91 -96 60 0 91 33 97 103 l4 57 69 0 c57 0 72 4 96 24 l28
24 3 167 c4 193 0 228 -33 261 -26 26 -85 32 -118 13z"/>
<path d="M2399 2281 c-18 -15 -25 -32 -29 -77 l-5 -59 -78 -5 c-118 -8 -117
-5 -117 -252 l0 -199 26 -24 c39 -36 96 -34 135 4 29 29 29 30 29 155 l0 126
261 0 261 0 29 29 c21 22 29 39 29 66 0 27 -8 44 -29 66 l-29 29 -160 0 -160
0 -4 57 c-4 46 -10 61 -32 80 -34 29 -94 31 -127 4z"/>
<path d="M1682 1763 c-19 -7 -42 -58 -42 -92 0 -17 10 -42 24 -58 24 -28 26
-28 155 -31 l131 -4 0 -260 0 -260 29 -29 c32 -31 75 -38 114 -17 43 23 46 36
47 204 l0 162 57 4 c70 6 103 37 103 98 0 60 -31 90 -104 97 l-58 6 5 50 c7
57 -10 109 -41 126 -21 11 -394 15 -420 4z"/>
</g>
</svg>
