<?xml version="1.0" standalone="no"?>
<!DOCTYPE svg PUBLIC "-//W3C//DTD SVG 20010904//EN"
 "http://www.w3.org/TR/2001/REC-SVG-20010904/DTD/svg10.dtd">
<svg version="1.0" xmlns="http://www.w3.org/2000/svg"
 width="700.000000pt" height="700.000000pt" viewBox="0 0 700.000000 700.000000"
 preserveAspectRatio="xMidYMid meet">

<g transform="translate(0.000000,700.000000) scale(0.100000,-0.100000)"
fill="#000000" stroke="none">
<path d="M1000 3500 l0 -2500 2500 0 2500 0 0 2500 0 2500 -2500 0 -2500 0 0
-2500z m2700 1476 l0 -405 -47 -5 c-233 -28 -364 -72 -516 -175 -146 -98 -260
-233 -341 -402 -75 -155 -90 -225 -90 -424 0 -146 3 -182 23 -255 101 -378
407 -663 789 -736 41 -8 98 -14 128 -14 l54 0 0 -406 0 -407 -117 6 c-486 23
-982 279 -1293 668 -186 233 -307 489 -372 789 -20 92 -22 134 -23 345 0 215
2 252 24 355 92 443 320 809 686 1099 271 216 675 360 1033 369 l62 2 0 -404z
m1079 -2415 c151 -47 268 -169 317 -330 19 -60 18 -195 -2 -262 -52 -177 -210
-313 -394 -339 -276 -39 -520 156 -547 437 -20 213 128 434 332 496 73 23 219
21 294 -2z"/>
</g>
</svg>
