<?xml version="1.0" standalone="no"?>
<!DOCTYPE svg PUBLIC "-//W3C//DTD SVG 20010904//EN"
 "http://www.w3.org/TR/2001/REC-SVG-20010904/DTD/svg10.dtd">
<svg version="1.0" xmlns="http://www.w3.org/2000/svg"
 width="638.000000pt" height="628.000000pt" viewBox="0 0 638.000000 628.000000"
 preserveAspectRatio="xMidYMid meet">

<g transform="translate(0.000000,628.000000) scale(0.100000,-0.100000)"
fill="#000000" stroke="none">
<path d="M1931 5266 c-45 -25 -50 -49 -51 -233 l0 -173 -47 0 c-65 0 -109 -28
-123 -78 -25 -80 32 -142 130 -142 l40 0 0 -74 c0 -86 19 -119 78 -136 49 -13
356 -13 405 1 80 22 101 125 37 182 -30 27 -32 27 -165 27 l-135 0 0 263 c0
149 -5 278 -10 299 -19 68 -96 99 -159 64z"/>
<path d="M3697 4852 c-26 -28 -27 -28 -29 -207 l-3 -180 -45 -3 c-73 -4 -90
-11 -110 -45 -24 -38 -25 -78 -6 -116 19 -35 55 -51 117 -51 l49 0 -1 -74 c-2
-141 13 -148 292 -144 l211 3 24 28 c37 43 34 114 -6 152 -31 29 -32 30 -170
33 l-140 4 0 285 0 285 -29 29 c-25 24 -38 29 -78 29 -41 0 -54 -5 -76 -28z"/>
<path d="M1705 4571 c-11 -5 -29 -19 -40 -31 -18 -19 -20 -39 -23 -161 l-4
-139 -261 0 c-144 0 -278 -5 -298 -10 -49 -14 -70 -40 -76 -94 -5 -42 -3 -48
30 -81 l35 -35 176 0 176 0 0 -47 c0 -93 66 -149 146 -123 47 16 74 61 74 123
l0 47 75 0 c68 0 77 2 107 29 l33 29 3 206 c3 171 1 210 -13 235 -25 50 -88
73 -140 52z"/>
<path d="M2562 4565 c-38 -17 -62 -65 -62 -125 l0 -40 -74 0 c-66 0 -78 -3
-105 -26 l-31 -26 0 -223 0 -222 25 -26 c44 -44 126 -39 164 9 19 24 21 40 21
165 l0 139 291 0 291 0 29 29 c24 24 29 38 29 76 0 38 -5 52 -29 76 l-29 29
-181 0 -181 0 0 44 c0 25 -4 56 -10 70 -19 51 -92 76 -148 51z"/>
<path d="M3459 4151 l-29 -29 0 -141 0 -141 -280 0 c-298 0 -325 -4 -350 -49
-20 -39 -12 -98 19 -133 l29 -33 181 -3 181 -4 0 -44 c0 -83 38 -124 114 -124
61 0 106 59 106 141 0 26 2 26 75 31 66 4 80 9 105 33 l30 29 0 219 0 219 -29
29 c-24 24 -38 29 -76 29 -38 0 -52 -5 -76 -29z"/>
<path d="M4341 4166 c-34 -19 -50 -54 -51 -107 l0 -47 -80 -4 c-71 -3 -83 -6
-107 -31 l-28 -27 0 -221 0 -221 33 -29 c45 -40 99 -40 144 0 l33 29 3 141 3
140 290 3 289 3 26 26 c22 22 26 36 26 79 0 43 -4 57 -26 79 -26 26 -27 26
-205 29 l-179 3 -4 56 c-4 48 -10 61 -37 85 -35 31 -88 37 -130 14z"/>
<path d="M1760 3983 c-46 -24 -65 -76 -47 -130 19 -60 56 -73 210 -73 l127 0
0 -286 c0 -176 4 -293 10 -305 22 -41 98 -61 143 -38 53 27 57 41 57 230 l0
177 60 4 c71 5 107 33 116 89 12 75 -41 129 -128 129 l-48 0 0 75 c0 68 -2 77
-29 107 l-29 33 -204 3 c-178 2 -207 0 -238 -15z"/>
<path d="M2583 3786 l-28 -24 -3 -186 -3 -186 -58 0 c-50 0 -61 -4 -84 -28
-21 -22 -27 -38 -27 -71 0 -23 5 -51 10 -62 16 -28 63 -49 113 -49 l45 0 4
-80 c3 -71 6 -83 31 -107 l27 -28 221 0 221 0 29 33 c40 45 40 99 0 144 l-29
33 -141 3 -141 4 0 269 c0 340 -6 359 -114 359 -33 0 -52 -6 -73 -24z"/>
<path d="M3534 3582 c-28 -22 -44 -54 -44 -87 0 -33 16 -65 44 -87 18 -15 43
-18 159 -18 l137 0 0 -264 c0 -145 3 -277 6 -295 10 -50 49 -81 101 -81 100 0
113 28 113 250 l0 170 55 0 c46 0 59 4 84 28 45 41 46 109 2 153 -26 25 -37
29 -85 29 l-56 0 0 71 c0 75 -10 104 -44 131 -18 15 -47 18 -236 18 -189 0
-218 -3 -236 -18z"/>
<path d="M4167 3129 c-40 -23 -47 -60 -47 -239 l0 -170 -56 0 c-48 0 -59 -4
-85 -29 -24 -24 -29 -38 -29 -76 0 -38 5 -52 29 -76 25 -25 37 -29 84 -29 l55
0 4 -81 c3 -77 5 -82 36 -110 l32 -29 206 0 c223 0 250 5 272 55 31 67 1 136
-66 155 -20 5 -88 10 -149 10 l-113 0 0 275 c0 293 -4 320 -49 345 -25 13
-101 13 -124 -1z"/>
<path d="M2405 3113 c-78 -14 -95 -54 -95 -217 l0 -126 -287 0 -287 0 -28 -27
c-24 -22 -28 -35 -28 -78 0 -43 4 -56 28 -78 l28 -27 177 0 177 0 0 -42 c0
-121 108 -182 186 -104 31 31 34 40 34 90 l0 56 79 0 c69 0 81 3 104 24 14 13
29 35 32 48 3 13 5 115 3 226 -3 187 -4 203 -23 222 -23 23 -70 38 -100 33z"/>
<path d="M3209 3081 c-25 -26 -29 -37 -29 -85 l0 -56 -70 0 c-76 0 -122 -16
-140 -49 -6 -12 -10 -106 -10 -233 0 -204 1 -215 21 -237 46 -49 116 -51 163
-4 26 25 26 28 26 164 l0 138 289 3 290 3 30 29 c25 24 31 38 31 74 0 99 -28
112 -250 112 l-170 0 0 56 c0 48 -4 59 -29 85 -24 24 -38 29 -76 29 -38 0 -52
-5 -76 -29z"/>
<path d="M2409 2501 c-23 -23 -29 -38 -29 -71 0 -92 34 -110 210 -110 l130 0
0 -280 c0 -231 3 -286 15 -310 19 -37 43 -50 95 -50 33 0 48 6 71 29 l29 29 0
181 0 181 50 0 c92 0 139 48 127 127 -10 56 -37 77 -110 83 l-62 5 -1 60 c-1
92 -2 94 -33 126 l-29 29 -217 0 -217 0 -29 -29z"/>
<path d="M3921 2414 l-31 -26 0 -144 0 -144 -289 0 -289 0 -31 -26 c-27 -23
-31 -32 -31 -79 0 -100 34 -114 263 -115 l147 0 0 -27 c0 -89 44 -143 116
-143 67 0 96 31 102 108 l4 62 60 0 c70 0 120 19 143 53 14 22 16 55 13 242
l-3 217 -28 24 c-40 34 -105 33 -146 -2z"/>
<path d="M4779 2411 c-25 -25 -29 -37 -29 -84 l0 -54 -82 -5 c-76 -5 -83 -7
-110 -37 l-28 -31 0 -216 0 -216 29 -29 c24 -24 38 -29 76 -29 38 0 52 5 76
29 l29 29 0 141 0 140 296 3 296 3 24 28 c34 40 34 114 -1 149 -32 32 -67 38
-247 38 l-148 0 0 56 c0 48 -4 59 -29 85 -24 24 -38 29 -76 29 -38 0 -52 -5
-76 -29z"/>
<path d="M3998 1844 c-58 -31 -67 -113 -19 -166 l29 -33 141 -3 140 -4 3 -290
3 -290 28 -24 c43 -37 114 -34 153 7 l29 30 3 180 4 179 55 0 c47 0 58 4 85
30 28 28 30 35 26 82 -7 70 -40 98 -115 98 l-53 0 0 63 c0 72 -22 125 -60 144
-39 19 -416 17 -452 -3z"/>
</g>
</svg>
