<?xml version="1.0" standalone="no"?>
<!DOCTYPE svg PUBLIC "-//W3C//DTD SVG 20010904//EN"
 "http://www.w3.org/TR/2001/REC-SVG-20010904/DTD/svg10.dtd">
<svg version="1.0" xmlns="http://www.w3.org/2000/svg"
 width="500.000000pt" height="500.000000pt" viewBox="0 0 500.000000 500.000000"
 preserveAspectRatio="xMidYMid meet">

<g transform="translate(0.000000,500.000000) scale(0.100000,-0.100000)"
fill="#000000" stroke="none">
<path d="M0 2500 l0 -2500 2500 0 2500 0 0 2500 0 2500 -2500 0 -2500 0 0
-2500z m1235 2394 c42 -28 45 -49 45 -384 l0 -320 159 0 c144 0 161 -2 184
-20 56 -44 59 -135 6 -186 l-30 -29 -231 -3 c-248 -3 -273 0 -308 46 -16 20
-20 40 -20 112 l0 88 -70 4 c-87 5 -119 30 -127 100 -10 88 41 138 142 138
l55 0 0 198 c0 178 2 200 20 229 31 51 118 65 175 27z m2006 -440 c56 -28 59
-51 59 -393 l0 -310 154 -3 c174 -3 198 -12 225 -81 17 -47 -2 -111 -42 -141
-26 -20 -44 -21 -245 -24 -240 -4 -280 3 -316 51 -18 24 -21 41 -19 113 l3 84
-53 0 c-61 0 -117 25 -134 60 -27 53 -8 147 34 166 10 4 47 10 83 13 l65 6 5
205 c3 113 9 212 13 220 23 46 111 64 168 34z m-2265 -368 l34 -34 0 -237 c0
-205 -2 -241 -17 -266 -25 -42 -69 -59 -157 -59 l-76 0 0 -62 c0 -50 -5 -69
-23 -91 -41 -51 -136 -53 -185 -3 -21 21 -27 37 -30 91 l-4 65 -184 0 c-199 0
-237 7 -268 51 -26 37 -21 122 8 156 l24 28 334 5 333 5 5 161 c4 144 7 164
25 184 26 29 51 39 104 39 36 1 48 -4 77 -33z m948 22 c39 -17 58 -55 64 -125
l5 -63 194 0 c211 0 239 -6 261 -55 15 -34 15 -93 -1 -125 -7 -14 -28 -33 -47
-42 -31 -16 -70 -18 -347 -18 l-312 0 -3 -160 c-3 -157 -4 -160 -29 -185 -49
-50 -144 -50 -186 0 -23 26 -23 31 -23 277 l0 250 30 28 c36 33 72 42 150 33
l60 -6 0 50 c0 69 17 111 54 134 35 21 93 25 130 7z m1041 -444 c63 -29 67
-50 63 -317 l-3 -239 -33 -29 c-31 -27 -37 -29 -122 -29 l-90 0 0 -65 c0 -57
-3 -69 -28 -96 -21 -23 -39 -32 -72 -36 -92 -10 -140 38 -140 140 l0 57 -204
0 c-190 0 -205 1 -229 21 -69 54 -51 179 30 210 13 5 166 9 339 9 l314 0 0
158 c0 174 5 192 64 218 41 18 71 17 111 -2z m969 2 c50 -21 66 -51 66 -123
l0 -63 190 0 c215 0 248 -7 275 -61 37 -71 1 -158 -74 -179 -20 -5 -167 -10
-333 -10 l-296 0 -4 -156 -3 -156 -37 -34 c-30 -27 -46 -34 -79 -34 -51 0 -94
25 -114 66 -21 45 -22 438 -1 489 23 54 67 75 159 75 l77 0 0 51 c0 65 22 111
63 132 40 20 69 21 111 3z m-2502 -234 c32 -31 33 -36 36 -122 l4 -90 50 0
c65 0 112 -23 132 -65 20 -41 20 -66 2 -109 -21 -50 -51 -66 -123 -66 l-63 0
0 -195 c0 -156 -3 -202 -15 -225 -36 -69 -144 -80 -197 -21 l-28 31 0 324 0
324 -160 4 -160 3 -31 31 c-40 40 -51 109 -24 151 38 59 52 62 317 60 l228 -2
32 -33z m570 -201 l33 -29 3 -331 3 -331 150 0 c170 0 196 -8 223 -64 20 -43
20 -69 0 -112 -29 -61 -46 -64 -310 -64 l-236 0 -34 34 c-33 33 -34 36 -34
120 l0 86 -32 0 c-103 1 -168 48 -168 121 0 85 49 129 145 129 l55 0 0 198 c1
210 5 233 51 258 13 7 45 13 71 14 39 0 54 -5 80 -29z m1429 -227 c41 -21 59
-68 59 -159 l0 -75 58 0 c76 0 117 -25 132 -80 14 -50 1 -96 -36 -131 -19 -18
-39 -24 -89 -27 l-65 -4 0 -184 c0 -199 -7 -237 -51 -268 -14 -10 -44 -16 -75
-16 -63 0 -99 25 -114 78 -6 22 -10 163 -10 340 l0 302 -156 0 -156 0 -34 34
c-30 30 -34 41 -34 84 0 53 24 96 64 112 11 5 124 9 249 9 188 1 233 -2 258
-15z m328 -519 c16 -8 32 -22 37 -32 5 -10 11 -164 14 -343 l5 -325 156 -5
c170 -5 200 -15 220 -68 17 -43 5 -111 -25 -141 l-26 -26 -240 -3 c-202 -3
-244 -1 -269 13 -46 23 -61 62 -61 155 l0 80 -64 0 c-74 0 -108 20 -126 76
-16 49 -5 95 30 129 26 25 40 30 95 33 l64 4 3 205 3 205 33 29 c26 23 42 29
78 29 25 0 58 -7 73 -15z m-2049 -30 c56 -29 60 -51 60 -300 0 -253 -5 -275
-65 -301 -20 -8 -67 -14 -110 -14 l-75 0 0 -63 c0 -72 -16 -102 -66 -123 -43
-18 -68 -18 -108 1 -45 22 -66 62 -66 128 l0 56 -204 3 -205 3 -30 29 c-28 27
-31 36 -31 89 0 53 3 62 31 88 l31 29 329 0 329 0 0 149 c0 82 4 161 10 175
21 56 110 82 170 51z m975 0 c39 -19 55 -52 62 -127 l6 -58 199 0 200 0 35
-35 c34 -34 35 -38 31 -91 -4 -43 -11 -61 -32 -82 l-26 -27 -330 -3 -329 -3
-3 -159 -3 -160 -33 -32 c-29 -29 -38 -33 -87 -32 -64 0 -99 26 -115 83 -5 20
-10 125 -10 233 0 285 13 308 170 308 l80 0 0 51 c0 65 23 113 63 133 41 20
80 20 122 1z m-493 -674 c32 -28 33 -32 36 -120 l4 -91 44 0 c95 0 160 -57
150 -133 -9 -76 -61 -117 -151 -117 l-45 0 0 -190 c0 -204 -5 -232 -52 -264
-26 -19 -100 -21 -131 -5 -57 29 -57 26 -57 382 l0 327 -145 0 c-165 0 -204
10 -229 59 -9 16 -16 49 -16 72 0 33 6 47 34 75 l34 34 246 0 246 0 32 -29z
m1293 -86 c54 -26 59 -49 63 -265 4 -234 0 -271 -38 -313 -27 -31 -32 -32
-119 -35 l-91 -4 0 -53 c0 -100 -74 -162 -161 -134 -57 19 -79 52 -86 127 l-6
62 -191 0 c-173 0 -194 2 -224 20 -37 23 -52 54 -52 112 0 32 7 47 34 74 l34
34 326 0 326 0 0 146 c0 165 10 202 63 228 41 20 80 20 122 1z m975 0 c40 -21
60 -63 60 -130 l0 -55 195 0 c255 0 275 -9 275 -122 0 -47 -4 -58 -31 -84
l-30 -29 -330 -3 -329 -3 0 -150 c0 -164 -8 -194 -58 -220 -31 -17 -93 -17
-125 0 -54 29 -59 54 -55 313 l3 238 28 27 c25 26 35 28 120 33 l92 5 5 65 c6
75 11 85 54 111 37 23 87 24 126 4z m-504 -663 c35 -28 44 -56 44 -140 l0 -79
63 -5 c99 -8 137 -44 137 -129 0 -31 -7 -47 -33 -75 -30 -33 -39 -36 -100 -41
l-67 -6 0 -199 0 -200 -34 -34 c-30 -30 -40 -34 -85 -34 -42 0 -56 5 -83 29
l-33 29 -3 330 -3 331 -159 3 c-150 3 -160 4 -183 26 -56 53 -59 131 -7 184
l28 28 249 0 c220 0 250 -2 269 -18z"/>
</g>
</svg>
